<svg viewBox="0 0 390 99" fill="none" xmlns="http://www.w3.org/2000/svg">
<g clip-path="url(#clip0)">
<path d="M4.54545 49.5C2.87622 49.5 1.54385 50.9064 1.64959 52.5726C2.62168 67.9802 10.8568 81.4156 22.9682 89.4974C24.3557 90.4227 26.2387 89.9665 27.0726 88.5231L49.6027 49.5H4.54545Z" fill="#FFA000"/>
<path d="M72.1351 88.5276L49.6027 49.5L27.0695 88.5276C26.2372 89.9695 26.7803 91.8261 28.2712 92.5655C34.6982 95.7559 41.9408 97.5498 49.602 97.5498C57.2638 97.5498 64.5065 95.7559 70.9334 92.5655C72.4244 91.8261 72.9675 89.9695 72.1351 88.5276V88.5276Z" fill="#FFA000"/>
<path d="M27.0726 10.4769C26.2387 9.0335 24.3557 8.5773 22.9682 9.50255C10.8568 17.5844 2.62168 31.0198 1.64959 46.4274C1.54385 48.0936 2.87622 49.5 4.54545 49.5H49.6027L27.0726 10.4769Z" fill="#FFA000"/>
<path d="M70.9334 6.43373C64.5065 3.24406 57.2638 1.4502 49.602 1.4502C41.9408 1.4502 34.6982 3.24406 28.2712 6.43373C26.7803 7.17393 26.2372 9.03049 27.0695 10.4716L49.6027 49.5L72.1351 10.4724C72.9675 9.03049 72.4244 7.17393 70.9334 6.43373Z" fill="#FFA000"/>
<path d="M97.5559 46.4274C96.583 31.0198 88.3486 17.5844 76.2365 9.50255C74.8497 8.5773 72.966 9.0335 72.1321 10.4769L49.6027 49.5H69.132L69.1313 59.1801C69.1313 61.159 70.7355 62.7632 72.7145 62.7632H72.8066C74.8648 62.7632 76.5182 61.1099 76.5182 59.0698V57.7397C76.5182 56.4685 77.5484 55.439 78.8189 55.439C80.0901 55.439 81.1203 56.4692 81.1203 57.7397V68.0761C81.1203 69.632 82.3817 70.8942 83.9376 70.8942C85.4936 70.8942 86.7549 69.632 86.7549 68.0761V49.5H94.6585C96.3285 49.5 97.6608 48.0936 97.5559 46.4274V46.4274Z" fill="#FFA000"/>
<path d="M9.52144 49.5C9.52144 51.8974 8.96251 54.3128 9.36207 56.5954C9.77372 58.9429 11.1318 61.0223 11.9286 63.2119C12.7398 65.4408 13.0435 67.9039 14.2157 69.9304C15.3993 71.975 17.3872 73.4652 18.8979 75.2636C20.413 77.0673 21.5377 79.2819 23.3414 80.797C25.1397 82.3076 27.5137 83.0335 29.5583 84.2171L49.6027 49.5H9.52144Z" fill="#FFE082"/>
<path d="M39.6357 49.5L22.2129 79.6761C24.4245 82.2042 26.8656 82.6589 29.5583 84.2171L49.6027 49.5H39.6357Z" fill="#FFB300"/>
<path d="M29.5583 84.2171C31.5772 85.3833 33.3945 87.0888 35.6257 87.9007C37.8154 88.6976 40.2928 88.5669 42.6403 88.9785C44.9228 89.3781 47.2054 90.354 49.6027 90.354C52.0001 90.354 54.2819 89.3781 56.5644 88.9785C58.9119 88.5669 61.3893 88.6976 63.579 87.9007C65.8079 87.0895 67.6191 85.3893 69.6449 84.2171C69.6456 84.2171 69.6456 84.2171 69.6464 84.2163L49.6027 49.5L29.5583 84.2171Z" fill="#FFE082"/>
<path d="M49.6027 49.5L46.8519 54.2645L61.912 80.3499C61.9113 80.3499 61.9113 80.3499 61.9105 80.3499C59.8848 81.5221 58.0735 83.2223 55.8446 84.0335C53.655 84.8311 51.1775 84.6997 48.83 85.1114C46.5475 85.5109 44.2657 86.4868 41.8683 86.4868C39.471 86.4868 37.1884 85.5109 34.9059 85.1114C33.3341 84.8357 31.7041 84.8024 30.1414 84.5721C31.9398 85.7111 33.6128 87.1681 35.6257 87.9007C37.8161 88.6983 40.2928 88.5677 42.6403 88.9785C44.9236 89.3781 47.2054 90.3547 49.6027 90.3547C52.0001 90.3547 54.2819 89.3781 56.5644 88.9785C58.9127 88.5677 61.3893 88.6983 63.579 87.9007C65.8079 87.0895 67.6191 85.3901 69.6456 84.2178C69.6456 84.2171 69.6456 84.2171 69.6464 84.2171L49.6027 49.5Z" fill="#FFB300"/>
<path d="M29.5583 14.7829C27.5137 15.9665 25.1397 16.6924 23.3414 18.203C21.5377 19.7181 20.413 21.9327 18.8979 23.7371C17.3865 25.5355 15.3993 27.025 14.2157 29.0704C13.0435 31.0961 12.7398 33.5599 11.9286 35.7881C11.131 37.9777 9.77372 40.0571 9.36207 42.4046C8.96251 44.6872 9.52144 47.1026 9.52144 49.5H49.6027L29.5583 14.7829Z" fill="#FFE082"/>
<path d="M29.5583 14.7829C28.192 15.5737 26.6783 16.1614 25.2878 16.9152L38.5186 39.832C40.0073 42.4099 38.1469 45.6328 35.1695 45.6328H9.27295C9.35981 46.9116 9.52145 48.2084 9.52145 49.5H49.6027L29.5583 14.7829Z" fill="#FFB300"/>
<path d="M63.579 11.0993C61.3893 10.3024 58.9119 10.4331 56.5644 10.0214C54.2819 9.62189 51.9993 8.64603 49.602 8.64603C47.2046 8.64603 44.9228 9.62189 42.6403 10.0214C40.2928 10.4331 37.8154 10.3024 35.6257 11.0993C33.5509 11.8546 32.106 13.2157 29.5583 14.7829L49.6027 49.5L69.6464 14.7829C67.6274 13.6167 65.8102 11.9112 63.579 11.0993Z" fill="#FFE082"/>
<path d="M63.579 11.0993C62.8554 10.8357 62.1001 10.6748 61.3297 10.5615C61.5177 10.6808 61.7171 10.8032 61.912 10.9165L44.6184 40.8683L49.6027 49.5L69.6464 14.7829C67.6274 13.6167 65.8102 11.9112 63.579 11.0993Z" fill="#FFB300"/>
<path d="M86.7549 49.5H89.6833C89.6833 47.1026 90.2422 44.6872 89.8426 42.4046C89.431 40.0571 88.0729 37.9777 87.2761 35.7881C86.4649 33.5592 86.1612 31.0961 84.989 29.0696C83.8054 27.025 81.8175 25.5348 80.3068 23.7364C78.7917 21.9327 77.667 19.7181 75.8633 18.203C74.065 16.6924 71.691 15.9665 69.6464 14.7829L49.6027 49.5H69.132L69.1313 59.1801C69.1313 61.159 70.7355 62.7632 72.7145 62.7632H72.8066C74.8648 62.7632 76.5182 61.1099 76.5182 59.0698V57.7397C76.5182 56.4685 77.5484 55.439 78.8189 55.439C80.0901 55.439 81.1195 56.4685 81.1195 57.7397V68.0761C81.1195 69.632 82.3817 70.8934 83.9376 70.8934C85.4935 70.8934 86.7549 69.632 86.7549 68.0761V49.5Z" fill="#FFE082"/>
<path d="M89.8426 42.4046C89.431 40.0571 88.0729 37.9777 87.2761 35.7881C86.4649 33.5592 86.1612 31.0961 84.989 29.0696C83.8054 27.025 81.8175 25.5348 80.3068 23.7364C78.7917 21.9327 77.667 19.7181 75.8633 18.203C74.065 16.6924 71.691 15.9665 69.6464 14.7829L69.2574 15.4567C70.4591 16.8306 71.3995 18.4726 72.5725 19.8692C74.0831 21.6676 76.0711 23.1578 77.2546 25.2024C78.4269 27.2289 78.7305 29.692 79.5417 31.9209C80.3393 34.1106 81.6966 36.1892 82.1082 38.5374C82.112 38.5601 82.1158 38.5827 82.1196 38.6054C82.7336 42.2928 79.8302 45.6328 76.0922 45.6328H51.8354L49.6027 49.5H79.0205V55.4488C80.1966 55.5515 81.1203 56.5372 81.1203 57.7397V68.0761C81.1203 69.6328 82.3817 70.8942 83.9376 70.8942C85.4935 70.8942 86.7549 69.632 86.7549 68.0761V49.5H89.6833C89.6833 47.1026 90.2422 44.6872 89.8426 42.4046V42.4046Z" fill="#FFB300"/>
<path d="M51.0371 77.3687C51.0371 80.5432 48.463 83.1166 45.2884 83.1166C42.1138 83.1166 39.5397 80.5432 39.5397 77.3687C39.5397 74.1941 42.1138 71.62 45.2884 71.62C48.463 71.62 51.0371 74.1941 51.0371 77.3687Z" fill="#EF5350"/>
<path d="M33.1143 68.2528C33.1143 71.4274 30.541 74.0015 27.3656 74.0015C24.1911 74.0015 21.6177 71.4274 21.6177 68.2528C21.6177 65.0783 24.1911 62.5049 27.3656 62.5049C30.541 62.5049 33.1143 65.0783 33.1143 68.2528Z" fill="#EF5350"/>
<path d="M37.8448 38.6439C37.8448 41.8185 35.2707 44.3926 32.0961 44.3926C28.9216 44.3926 26.3475 41.8185 26.3475 38.6439C26.3475 35.4694 28.9216 32.8953 32.0961 32.8953C35.2707 32.8953 37.8448 35.4694 37.8448 38.6439Z" fill="#EF5350"/>
<path d="M49.9139 19.1652C49.9139 22.3398 47.3398 24.9139 44.1652 24.9139C40.9907 24.9139 38.4173 22.3398 38.4173 19.1652C38.4173 15.9907 40.9907 13.4166 44.1652 13.4166C47.3398 13.4166 49.9139 15.9907 49.9139 19.1652Z" fill="#EF5350"/>
<path d="M75.1647 26.2803C75.1647 27.8679 73.8776 29.1542 72.2907 29.1542C70.7031 29.1542 69.416 27.8679 69.416 26.2803C69.416 24.6926 70.7031 23.4063 72.2907 23.4063C73.8776 23.4063 75.1647 24.6926 75.1647 26.2803V26.2803Z" fill="#FFA000"/>
<path d="M65.9152 41.2075C65.9152 42.7951 64.6281 44.0822 63.0404 44.0822C61.4535 44.0822 60.1665 42.7951 60.1665 41.2075C60.1665 39.6198 61.4535 38.3335 63.0404 38.3335C64.6281 38.3335 65.9152 39.6198 65.9152 41.2075Z" fill="#FFA000"/>
<path d="M62.5427 17.6576C62.5427 19.2453 61.2557 20.5316 59.6687 20.5316C58.0811 20.5316 56.794 19.2453 56.794 17.6576C56.794 16.07 58.0811 14.7829 59.6687 14.7829C61.2557 14.7829 62.5427 16.07 62.5427 17.6576Z" fill="#FFA000"/>
<path d="M52.4767 33.5599C52.4767 35.1476 51.1896 36.4346 49.602 36.4346C48.0151 36.4346 46.728 35.1476 46.728 33.5599C46.728 31.973 48.0151 30.686 49.602 30.686C51.1896 30.686 52.4767 31.973 52.4767 33.5599Z" fill="#FFA000"/>
<path d="M20.2687 42.3676C20.2687 43.9553 18.9817 45.2423 17.3948 45.2423C15.8071 45.2423 14.5201 43.9553 14.5201 42.3676C14.5201 40.7799 15.8071 39.4937 17.3948 39.4937C18.9817 39.4937 20.2687 40.7799 20.2687 42.3676Z" fill="#FFA000"/>
<path d="M36.776 56.0025C36.776 57.5894 35.489 58.8764 33.9021 58.8764C32.3144 58.8764 31.0274 57.5894 31.0274 56.0025C31.0274 54.4148 32.3144 53.1277 33.9021 53.1277C35.489 53.1277 36.776 54.4148 36.776 56.0025Z" fill="#FFA000"/>
<path d="M30.1225 24.1072C29.6776 22.5838 28.0809 21.7091 26.5575 22.1547C25.034 22.5996 24.1601 24.1964 24.605 25.7198C25.0506 27.2433 26.6466 28.1172 28.17 27.6723C29.6935 27.2267 30.5681 25.6307 30.1225 24.1072Z" fill="#FFA000"/>
<path d="M21.3043 58.1226C21.3043 59.7103 20.0172 60.9973 18.4296 60.9973C16.8427 60.9973 15.5556 59.7103 15.5556 58.1226C15.5556 56.535 16.8427 55.2487 18.4296 55.2487C20.0172 55.2487 21.3043 56.535 21.3043 58.1226Z" fill="#FFA000"/>
<path d="M61.7851 80.2426C61.7851 81.8303 60.4988 83.1173 58.9112 83.1173C57.3235 83.1173 56.0372 81.8303 56.0372 80.2426C56.0372 78.6557 57.3235 77.3687 58.9112 77.3687C60.4988 77.3687 61.7851 78.6557 61.7851 80.2426V80.2426Z" fill="#FFA000"/>
<path d="M52.4767 63.8713C52.4767 65.4582 51.1896 66.7452 49.602 66.7452C48.0151 66.7452 46.728 65.4582 46.728 63.8713C46.728 62.2836 48.0151 60.9966 49.602 60.9966C51.1896 60.9966 52.4767 62.2836 52.4767 63.8713V63.8713Z" fill="#FFA000"/>
<path d="M82.924 39.0306C82.924 42.2052 80.3499 44.7793 77.1753 44.7793C74.0007 44.7793 71.4274 42.2052 71.4274 39.0306C71.4274 35.8561 74.0007 33.282 77.1753 33.282C80.3499 33.282 82.924 35.8561 82.924 39.0306Z" fill="#EF5350"/>
<path d="M46.4848 71.7454C48.7749 75.9955 45.0603 81.115 40.2248 80.0908C41.1954 81.8922 43.0987 83.1166 45.2884 83.1166C48.4637 83.1166 51.0371 80.5432 51.0371 77.3687C51.0371 74.6042 49.0853 72.296 46.4848 71.7454V71.7454Z" fill="#D32F2F"/>
<path d="M28.562 62.6303C30.8521 66.8797 27.1383 71.9992 22.302 70.9757C23.2734 72.7771 25.176 74.0015 27.3664 74.0015C30.541 74.0015 33.1143 71.4274 33.1143 68.2528C33.1143 65.4884 31.1626 63.1809 28.562 62.6303Z" fill="#D32F2F"/>
<path d="M33.2926 33.0206C35.5819 37.2708 31.868 42.3903 27.0325 41.3661C28.0031 43.1675 29.9065 44.3926 32.0961 44.3926C35.2707 44.3926 37.8448 41.8185 37.8448 38.6439C37.8448 35.8795 35.8931 33.5713 33.2926 33.0206Z" fill="#D32F2F"/>
<path d="M45.3617 13.542C47.651 17.7921 43.9379 22.9116 39.1017 21.8874C40.0722 23.6888 41.9756 24.9139 44.1653 24.9139C47.3398 24.9139 49.9139 22.3398 49.9139 19.1652C49.9139 16.4008 47.9622 14.0933 45.3617 13.542Z" fill="#D32F2F"/>
<path d="M78.3717 33.4081C80.6618 37.6575 76.948 42.7777 72.1117 41.7535C73.0823 43.5549 74.9857 44.7793 77.1753 44.7793C80.3506 44.7793 82.924 42.2052 82.924 39.0306C82.924 36.2662 80.9723 33.958 78.3717 33.4081V33.4081Z" fill="#D32F2F"/>
<path d="M52.4873 77.3687C52.4873 73.3995 49.2576 70.1698 45.2884 70.1698C41.3185 70.1698 38.0895 73.3995 38.0895 77.3687C38.0895 81.3378 41.3192 84.5668 45.2884 84.5668C49.2576 84.5668 52.4873 81.3378 52.4873 77.3687V77.3687ZM40.9899 77.3687C40.9899 74.9985 42.9182 73.0702 45.2884 73.0702C47.6586 73.0702 49.5869 74.9985 49.5869 77.3687C49.5869 79.7388 47.6586 81.6664 45.2884 81.6664C42.9182 81.6664 40.9899 79.7388 40.9899 77.3687Z" fill="black"/>
<path d="M27.3656 61.0547C23.3965 61.0547 20.1675 64.2837 20.1675 68.2528C20.1675 72.222 23.3965 75.4517 27.3656 75.4517C31.3356 75.4517 34.5645 72.222 34.5645 68.2528C34.5645 64.2837 31.3356 61.0547 27.3656 61.0547ZM27.3656 72.5513C24.9962 72.5513 23.0679 70.623 23.0679 68.2528C23.0679 65.8827 24.9962 63.9551 27.3656 63.9551C29.7358 63.9551 31.6641 65.8827 31.6641 68.2528C31.6641 70.623 29.7358 72.5513 27.3656 72.5513Z" fill="black"/>
<path d="M32.0961 31.4451C28.1262 31.4451 24.8973 34.6748 24.8973 38.6439C24.8973 42.6131 28.1262 45.8428 32.0961 45.8428C36.0653 45.8428 39.2942 42.6131 39.2942 38.6439C39.2942 34.6748 36.0653 31.4451 32.0961 31.4451ZM32.0961 42.9424C29.726 42.9424 27.7977 41.0141 27.7977 38.6439C27.7977 36.2738 29.726 34.3455 32.0961 34.3455C34.4655 34.3455 36.3939 36.2738 36.3939 38.6439C36.3939 41.0141 34.4663 42.9424 32.0961 42.9424Z" fill="black"/>
<path d="M51.3641 19.1652C51.3641 15.1961 48.1344 11.9664 44.1652 11.9664C40.1961 11.9664 36.9671 15.1961 36.9671 19.1652C36.9671 23.1344 40.1961 26.3641 44.1652 26.3641C48.1344 26.3641 51.3641 23.1344 51.3641 19.1652ZM39.8668 19.1652C39.8668 16.7951 41.7951 14.8668 44.1652 14.8668C46.5354 14.8668 48.4637 16.7951 48.4637 19.1652C48.4637 21.5354 46.5354 23.4637 44.1652 23.4637C41.7951 23.4637 39.8668 21.5354 39.8668 19.1652Z" fill="black"/>
<path d="M76.6149 26.2803C76.6149 23.8958 74.6752 21.9561 72.2907 21.9561C69.9062 21.9561 67.9658 23.8958 67.9658 26.2803C67.9658 28.6648 69.9062 30.6044 72.2907 30.6044C74.6752 30.6044 76.6149 28.6648 76.6149 26.2803V26.2803ZM70.8662 26.2803C70.8662 25.4947 71.5052 24.8565 72.2907 24.8565C73.0762 24.8565 73.7145 25.4947 73.7145 26.2803C73.7145 27.0658 73.0762 27.704 72.2907 27.704C71.5052 27.704 70.8662 27.0658 70.8662 26.2803Z" fill="black"/>
<path d="M63.0404 36.8833C60.6559 36.8833 58.7163 38.8229 58.7163 41.2075C58.7163 43.592 60.6559 45.5324 63.0404 45.5324C65.425 45.5324 67.3653 43.592 67.3653 41.2075C67.3653 38.8229 65.425 36.8833 63.0404 36.8833ZM63.0404 42.632C62.2557 42.632 61.6167 41.993 61.6167 41.2075C61.6167 40.4227 62.2557 39.7837 63.0404 39.7837C63.826 39.7837 64.465 40.4227 64.465 41.2075C64.465 41.993 63.826 42.632 63.0404 42.632Z" fill="black"/>
<path d="M59.6687 21.9818C62.0533 21.9818 63.9929 20.0422 63.9929 17.6576C63.9929 15.2731 62.0533 13.3327 59.6687 13.3327C57.2842 13.3327 55.3446 15.2731 55.3446 17.6576C55.3446 20.0422 57.2842 21.9818 59.6687 21.9818V21.9818ZM59.6687 16.2331C60.4535 16.2331 61.0925 16.8721 61.0925 17.6576C61.0925 18.4432 60.4535 19.0814 59.6687 19.0814C58.8832 19.0814 58.245 18.4424 58.245 17.6576C58.245 16.8721 58.8832 16.2331 59.6687 16.2331Z" fill="black"/>
<path d="M45.2778 33.5599C45.2778 35.9444 47.2182 37.8848 49.6027 37.8848C51.9872 37.8848 53.9269 35.9444 53.9269 33.5599C53.9269 31.1754 51.9872 29.2358 49.6027 29.2358C47.2175 29.2358 45.2778 31.1754 45.2778 33.5599V33.5599ZM51.0265 33.5599C51.0265 34.3455 50.3875 34.9844 49.602 34.9844C48.8172 34.9844 48.1782 34.3455 48.1782 33.5599C48.1782 32.7752 48.8172 32.1362 49.602 32.1362C50.3875 32.1362 51.0265 32.7752 51.0265 33.5599Z" fill="black"/>
<path d="M17.3948 38.0435C15.0103 38.0435 13.0706 39.9831 13.0706 42.3676C13.0706 44.7521 15.0103 46.6925 17.3948 46.6925C19.7793 46.6925 21.7189 44.7521 21.7189 42.3676C21.7189 39.9831 19.7793 38.0435 17.3948 38.0435ZM17.3948 43.7921C16.6093 43.7921 15.971 43.1531 15.971 42.3676C15.971 41.5828 16.6093 40.9438 17.3948 40.9438C18.1796 40.9438 18.8186 41.5828 18.8186 42.3676C18.8186 43.1531 18.1796 43.7921 17.3948 43.7921Z" fill="black"/>
<path d="M33.9021 60.3266C36.2866 60.3266 38.2262 58.387 38.2262 56.0025C38.2262 53.6179 36.2858 51.6776 33.9021 51.6776C31.5176 51.6776 29.5772 53.6179 29.5772 56.0025C29.5772 58.387 31.5176 60.3266 33.9021 60.3266ZM33.9021 54.5779C34.6869 54.5779 35.3258 55.2169 35.3258 56.0025C35.3258 56.7872 34.6869 57.4262 33.9021 57.4262C33.1166 57.4262 32.4776 56.7872 32.4776 56.0025C32.4776 55.2169 33.1166 54.5779 33.9021 54.5779Z" fill="black"/>
<path d="M27.3604 29.2403C27.7675 29.2403 28.1776 29.1822 28.5794 29.0643C30.868 28.3951 32.186 25.9895 31.5168 23.7001C31.1928 22.5921 30.4564 21.6751 29.4435 21.1207C28.4299 20.5656 27.2614 20.4387 26.1526 20.7627C23.864 21.4319 22.546 23.8376 23.2152 26.1262C23.5392 27.235 24.2757 28.1519 25.2885 28.7063C25.9343 29.0598 26.6436 29.2403 27.3604 29.2403ZM26.9668 23.5468C27.099 23.5083 27.2342 23.4886 27.3679 23.4886C27.6043 23.4886 27.8377 23.5483 28.05 23.6646C28.3838 23.8474 28.6263 24.1488 28.7328 24.5143C28.9533 25.2681 28.519 26.0605 27.766 26.2803C27.4004 26.3868 27.0159 26.3452 26.6821 26.1624C26.349 25.9796 26.1065 25.6783 25.9993 25.3127C25.7787 24.5597 26.213 23.7673 26.9668 23.5468Z" fill="black"/>
<path d="M22.7545 58.1226C22.7545 55.7381 20.8141 53.7985 18.4296 53.7985C16.045 53.7985 14.1054 55.7381 14.1054 58.1226C14.1054 60.5071 16.045 62.4475 18.4296 62.4475C20.8141 62.4468 22.7545 60.5071 22.7545 58.1226ZM18.4296 59.5464C17.6448 59.5464 17.0058 58.9074 17.0058 58.1226C17.0058 57.3371 17.6448 56.6981 18.4296 56.6981C19.2151 56.6981 19.8541 57.3371 19.8541 58.1226C19.8541 58.9074 19.2151 59.5464 18.4296 59.5464Z" fill="black"/>
<path d="M58.9112 84.5668C61.2957 84.5668 63.2353 82.6272 63.2353 80.2426C63.2353 77.8581 61.2957 75.9185 58.9112 75.9185C56.5266 75.9185 54.587 77.8581 54.587 80.2426C54.587 82.6272 56.5266 84.5668 58.9112 84.5668V84.5668ZM58.9112 78.8189C59.6967 78.8189 60.3349 79.4579 60.3349 80.2426C60.3349 81.0282 59.6967 81.6664 58.9112 81.6664C58.1264 81.6664 57.4874 81.0282 57.4874 80.2426C57.4874 79.4579 58.1264 78.8189 58.9112 78.8189Z" fill="black"/>
<path d="M49.602 68.1954C51.9865 68.1954 53.9269 66.2558 53.9269 63.8713C53.9269 61.4868 51.9865 59.5471 49.602 59.5471C47.2175 59.5471 45.2778 61.4868 45.2778 63.8713C45.2778 66.2558 47.2175 68.1954 49.602 68.1954V68.1954ZM49.602 62.4468C50.3875 62.4468 51.0265 63.0858 51.0265 63.8713C51.0265 64.6561 50.3875 65.295 49.602 65.295C48.8172 65.295 48.1782 64.6561 48.1782 63.8713C48.1782 63.0858 48.8172 62.4468 49.602 62.4468V62.4468Z" fill="black"/>
<path d="M77.1753 31.8318C73.2062 31.8318 69.9772 35.0615 69.9772 39.0306C69.9772 42.9998 73.2062 46.2295 77.1753 46.2295C81.1445 46.2295 84.3742 42.9998 84.3742 39.0306C84.3742 35.0615 81.1445 31.8318 77.1753 31.8318V31.8318ZM77.1753 43.3291C74.8051 43.3291 72.8776 41.4008 72.8776 39.0306C72.8776 36.6605 74.8051 34.7322 77.1753 34.7322C79.5455 34.7322 81.4738 36.6605 81.4738 39.0306C81.4738 41.4008 79.5455 43.3291 77.1753 43.3291V43.3291Z" fill="black"/>
<path d="M99.003 46.336C98.0264 30.8703 89.8373 16.8344 77.0409 8.29633C76.0801 7.65582 74.889 7.42923 73.7568 7.6664C73.3988 6.56818 72.611 5.64745 71.5777 5.13535C64.7127 1.72739 57.319 0 49.602 0C41.8857 0 34.492 1.72739 27.6262 5.13535C26.5937 5.64821 25.8059 6.56818 25.4479 7.6664C24.3157 7.42923 23.1238 7.65582 22.1631 8.29633C9.37869 16.8268 1.17904 30.8574 0.201669 46.336C0.129159 47.4909 0.530229 48.6374 1.30216 49.5C0.529473 50.3626 0.129159 51.5091 0.201669 52.664C1.17828 68.1297 9.36736 82.1656 22.1638 90.7037C23.0898 91.3215 24.2696 91.5806 25.4479 91.3336C25.8059 92.4318 26.5937 93.3525 27.627 93.8654C34.492 97.2726 41.8857 99 49.602 99C57.319 99 64.7127 97.2726 71.5777 93.8646C73.8157 92.7543 74.6405 89.9665 73.3912 87.8025L52.1141 50.9502H67.6811V59.1801C67.6811 61.8486 69.7846 64.2134 72.8066 64.2134C75.6526 64.2134 77.9684 61.906 77.9684 59.0698V57.7397C77.9684 57.2706 78.3498 56.8892 78.8189 56.8892C79.2879 56.8892 79.6694 57.2706 79.6694 57.7397V68.0761C79.6694 70.4296 81.5841 72.3436 83.9376 72.3436C86.2904 72.3436 88.2051 70.4296 88.2051 68.0761V50.9502H94.6585C97.1646 50.9502 99.1601 48.8323 99.003 46.336V46.336ZM24.2742 79.6867C22.6578 78.3287 21.5664 76.1859 20.0082 74.3308C18.4522 72.4788 16.5322 71.0377 15.471 69.2038C14.4211 67.3903 14.1243 65.005 13.2912 62.7157C12.4694 60.4588 11.1597 58.4534 10.7911 56.3454C10.5049 54.7132 10.7919 52.8936 10.9188 50.9502H47.0906L29.0009 82.2812C27.2607 81.4232 25.5574 80.7645 24.2742 79.6867V79.6867ZM10.7911 42.6546C11.1597 40.5466 12.4694 38.5412 13.2912 36.2843C14.1251 33.9927 14.4211 31.6105 15.471 29.7962C16.5315 27.9623 18.453 26.5204 20.0082 24.6692C21.5679 22.8111 22.657 20.6721 24.2742 19.3133C25.5574 18.2355 27.2614 17.5761 29.0016 16.718L36.6325 29.936C37.0329 30.6293 37.9203 30.8673 38.6137 30.4669C39.3071 30.0666 39.545 29.1791 39.1447 28.4858L31.5115 15.2648C33.1143 14.1877 34.5305 13.0412 36.1219 12.4619C38.0805 11.7488 40.4801 11.872 42.8903 11.4505C45.2468 11.0373 47.4463 10.0962 49.602 10.0962C51.7584 10.0962 53.9578 11.0373 56.3144 11.4505C58.7246 11.872 61.125 11.7488 63.0827 12.4619C64.6734 13.0412 66.0889 14.187 67.6932 15.2648L49.602 46.5996L42.5285 34.347C42.1274 33.6536 41.2407 33.4157 40.5473 33.816C39.8539 34.2171 39.616 35.1038 40.0163 35.7972L47.0906 48.0498H10.9195C10.7919 46.1064 10.5049 44.2868 10.7911 42.6546V42.6546ZM28.9163 7.73286C35.3772 4.52657 42.3374 2.90039 49.602 2.90039C56.8673 2.90039 63.8275 4.52657 70.2884 7.73286C71.0256 8.09843 71.2967 9.02444 70.8791 9.74728L69.1471 12.7466C67.5504 11.6597 66.002 10.4384 64.0745 9.7367C61.659 8.85752 59.0924 8.99272 56.8144 8.59316C54.6059 8.2072 52.2425 7.19584 49.602 7.19584C46.9622 7.19584 44.598 8.2072 42.3903 8.59316C40.113 8.99272 37.5457 8.85677 35.1295 9.7367C33.2027 10.4384 31.6581 11.6567 30.0576 12.7466C30.0447 12.7247 28.3264 9.74879 28.3264 9.74879C28.3256 9.74803 28.3256 9.74728 28.3256 9.74728C27.9087 9.0252 28.1784 8.09919 28.9163 7.73286ZM3.09677 46.518C4.00465 32.1279 11.7345 18.7415 23.7734 10.7088C24.4585 10.2518 25.3981 10.4769 25.8165 11.202L27.5477 14.2006C25.8044 15.0473 23.969 15.7822 22.4085 17.0927C20.4198 18.7634 19.2559 21.0558 17.7868 22.8043C16.3223 24.5476 14.2648 26.0892 12.9604 28.3438C11.6673 30.5787 11.3531 33.1287 10.566 35.2919C9.79335 37.4143 8.38696 39.5669 7.93378 42.1546C7.58558 44.1433 7.8726 46.1049 8.01157 48.0498H4.54546C3.70857 48.0498 3.0439 47.3474 3.09677 46.518V46.518ZM23.7734 88.2905C11.7345 80.2585 4.00465 66.8721 3.09677 52.4812C3.0439 51.6526 3.70857 50.9502 4.54621 50.9502H8.01157C7.8726 52.8981 7.58558 54.8567 7.93378 56.8454C8.38696 59.4331 9.79335 61.5865 10.566 63.7081C11.3531 65.8706 11.668 68.4213 12.9604 70.6562C14.2648 72.9101 16.323 74.4524 17.7876 76.1964C19.2566 77.945 20.4206 80.2373 22.4093 81.9073C23.9683 83.2178 25.8029 83.952 27.5477 84.7994L25.8165 87.7972C25.4003 88.5193 24.4622 88.7504 23.7734 88.2905V88.2905ZM70.2884 91.2671C63.8275 94.4734 56.8673 96.0996 49.602 96.0996C42.3366 96.0996 35.3772 94.4734 28.9163 91.2671C28.1791 90.9008 27.908 89.9756 28.3256 89.2527L30.0576 86.2534C31.655 87.341 33.2027 88.5616 35.1295 89.2633C35.881 89.5375 36.7141 89.15 36.9883 88.3962C37.2625 87.6439 36.8742 86.8116 36.1219 86.5381C34.5313 85.9588 33.1151 84.813 31.5115 83.7344L49.602 52.4004L67.6932 83.7344C66.0889 84.813 64.6734 85.9588 63.0827 86.5381C61.1242 87.2512 58.7246 87.1273 56.3144 87.5495C53.9578 87.9619 51.7584 88.9038 49.602 88.9038C47.3028 88.9038 45.0452 87.8531 42.3412 87.4619C41.5481 87.3478 40.8132 87.8977 40.6984 88.69C40.5843 89.4831 41.1342 90.2188 41.9265 90.3328C44.4258 90.6939 46.8088 91.8042 49.602 91.8042C52.2425 91.8042 54.6051 90.7936 56.8144 90.4068C59.0909 90.008 61.6582 90.1432 64.0752 89.2633C66.0013 88.5624 67.5474 87.3433 69.1471 86.2534L70.8791 89.2527C71.296 89.9748 71.0263 90.9008 70.2884 91.2671V91.2671ZM86.7549 48.0498C85.9543 48.0498 85.3047 48.6994 85.3047 49.5V68.0761C85.3047 68.8299 84.6914 69.4432 83.9376 69.4432C83.1838 69.4432 82.5705 68.8299 82.5705 68.0761V57.7397C82.5705 55.6709 80.8877 53.9888 78.8189 53.9888C76.7508 53.9888 75.068 55.6709 75.068 57.7397V59.0698C75.068 60.2262 74.1662 61.313 72.7145 61.313C71.5354 61.313 70.5815 60.3591 70.5815 59.1801L70.5822 50.9502H81.5486C82.3492 50.9502 82.9988 50.3006 82.9988 49.5C82.9988 48.6994 82.3492 48.0498 81.5486 48.0498H52.1141L70.203 16.7188C71.941 17.5753 73.6465 18.2347 74.9305 19.3133C76.5477 20.6713 77.6376 22.8134 79.1965 24.6692C80.7525 26.5212 82.6725 27.9616 83.7337 29.7962C84.7836 31.6097 85.0796 33.995 85.9135 36.2843C86.7353 38.5412 88.0442 40.5466 88.4136 42.6546C88.6998 44.2868 88.4128 46.1064 88.2852 48.0498H86.7549ZM94.6585 48.0498H91.1931C91.3321 46.1019 91.6191 44.1433 91.2709 42.1546C90.8177 39.5669 89.4113 37.4135 88.6387 35.2919C87.8524 33.1302 87.5367 30.578 86.2443 28.3438C84.9399 26.0892 82.8809 24.5461 81.4171 22.8036C79.9496 21.0558 78.7841 18.7627 76.7962 17.0927C75.2364 15.783 73.4033 15.0488 71.657 14.2006L73.3882 11.202C73.8066 10.4769 74.747 10.2518 75.4313 10.7088C87.4702 18.7415 95.2 32.1279 96.1079 46.518C96.1608 47.3489 95.4946 48.0498 94.6585 48.0498V48.0498Z" fill="black"/>
</g>
<path d="M151.633 62.0234C152.586 58.3047 153.516 53.7344 154.422 48.3125C155.344 42.875 155.805 39.0781 155.805 36.9219C155.805 35.7812 155.891 35.0078 156.062 34.6016C156.25 34.1953 156.625 33.8438 157.188 33.5469C157.766 33.25 158.391 33.1016 159.062 33.1016C159.5 33.1016 159.875 33.4141 160.188 34.0391C160.5 34.6641 160.656 35.4062 160.656 36.2656C160.656 36.9375 160.406 38.125 159.906 39.8281C158.922 43.7031 157.953 48.3047 157 53.6328C156.047 58.9453 155.57 62.0156 155.57 62.8438C155.57 64.5156 155.594 65.5703 155.641 66.0078C155.703 66.8203 155.438 67.4609 154.844 67.9297C154.266 68.3984 153.5 68.6328 152.547 68.6328C151.984 68.6328 151.602 68.5547 151.398 68.3984C151.211 68.2578 150.805 67.8438 150.18 67.1562C149.57 66.4688 149.188 65.8047 149.031 65.1641C148.906 64.5703 148.43 63.7891 147.602 62.8203C143.102 57.0703 139.055 50.7891 135.461 43.9766C134.445 47.5859 133.5 52.5938 132.625 59L132.039 62.9141C131.977 63.3047 131.945 64.0938 131.945 65.2812C131.961 66.4531 131.898 67.2422 131.758 67.6484C131.633 68.0547 131.32 68.5156 130.82 69.0312C130.336 69.5625 129.867 69.8281 129.414 69.8281C128.367 69.8281 127.75 69.375 127.562 68.4688C127.375 67.5781 127.281 66.8906 127.281 66.4062C127.281 65.2656 127.625 63.4062 128.312 60.8281C129 58.2656 129.844 54.3203 130.844 48.9922C131.859 43.6641 132.367 40.2812 132.367 38.8438L132.344 37.5547C132.359 37.1016 132.445 36.7031 132.602 36.3594C132.773 36 133.086 35.6953 133.539 35.4453C134.008 35.1953 134.469 35.0703 134.922 35.0703C135.344 35.0703 135.734 35.1641 136.094 35.3516C136.453 35.5234 136.711 35.7969 136.867 36.1719C137.023 36.5312 137.211 37.2109 137.43 38.2109C138.055 41.2422 139.984 45.2969 143.219 50.375C146.469 55.4375 149.273 59.3203 151.633 62.0234ZM181.773 57.8047C179.773 61.1641 177.727 63.7656 175.633 65.6094C173.539 67.4531 171.594 68.375 169.797 68.375C168.766 68.375 167.711 67.7734 166.633 66.5703C165.57 65.3672 165.039 63.5156 165.039 61.0156C165.039 58.9688 165.531 55.9531 166.516 51.9688C167.344 48.6406 167.758 46.3047 167.758 44.9609C168.211 44.0234 168.922 43.5547 169.891 43.5547C170.547 43.5547 171.07 43.7891 171.461 44.2578C171.852 44.7109 172.047 45.1875 172.047 45.6875C172.047 46.7812 171.664 48.3359 170.898 50.3516C169.445 54.2734 168.719 57.6406 168.719 60.4531C168.719 63.0156 169.312 64.2969 170.5 64.2969C172.016 64.2969 173.945 63.0078 176.289 60.4297C178.633 57.8516 180.641 54.2578 182.312 49.6484C182.969 47.8047 183.5 46.6094 183.906 46.0625C184.328 45.5 184.891 45.2188 185.594 45.2188C186.656 45.2188 187.188 45.9219 187.188 47.3281C187.188 47.5 187.039 48.0703 186.742 49.0391C185.805 52.4609 185.336 55.6953 185.336 58.7422C185.336 62.3984 185.938 64.7656 187.141 65.8438C187.766 66.4219 188.078 66.8906 188.078 67.25C188.078 67.6875 187.758 68.0859 187.117 68.4453C186.492 68.8047 185.922 68.9844 185.406 68.9844C184.312 68.9844 183.43 68.1719 182.758 66.5469C182.086 64.9219 181.75 62.5234 181.75 59.3516V58.5781C181.75 58.3281 181.758 58.0703 181.773 57.8047ZM202.586 59.2812C199.023 62.3438 196.672 65.4297 195.531 68.5391C195.094 69.5703 194.648 70.3438 194.195 70.8594C192.336 70.75 191.406 69.8828 191.406 68.2578C191.406 65.8672 194.07 62.2422 199.398 57.3828L200.523 56.3281C197.414 51.6562 195.859 48.0703 195.859 45.5703C195.859 43.3516 196.797 42.2422 198.672 42.2422C199.203 42.2422 199.586 42.4688 199.82 42.9219C200.07 43.375 200.266 44.4062 200.406 46.0156C200.609 48.5 201.68 51.1328 203.617 53.9141C207.945 50.1953 210.867 46.8672 212.383 43.9297C212.898 42.9922 213.297 42.3984 213.578 42.1484C213.859 41.8984 214.234 41.7734 214.703 41.7734C215.266 41.7734 215.789 41.9922 216.273 42.4297C216.773 42.8672 217.023 43.4219 217.023 44.0938C217.023 45.6562 213.227 49.9375 205.633 56.9375C208.242 60.2812 211.023 62.7891 213.977 64.4609C214.336 64.6641 214.68 64.875 215.008 65.0938C215.07 65.2344 215.102 65.4531 215.102 65.75C215.102 66.4219 214.852 67.0234 214.352 67.5547C213.867 68.0859 213.281 68.3516 212.594 68.3516C210.484 68.3516 207.148 65.3281 202.586 59.2812ZM229.938 44.3516C231.547 44.2266 233.062 44.0781 234.484 43.9062C235.891 43.75 237.062 43.6719 238 43.6719C239.188 43.6719 239.938 43.7812 240.25 44C240.562 44.2188 240.719 44.6016 240.719 45.1484C240.719 46.4141 239.836 47.1016 238.07 47.2109C235.805 47.3516 233.719 47.5469 231.812 47.7969C229.906 48.0469 228.875 48.2578 228.719 48.4297C228.578 48.5859 228.109 50.4453 227.312 54.0078C226.516 57.5547 226.117 59.8594 226.117 60.9219C226.117 62.6406 226.344 63.7891 226.797 64.3672C227.25 64.9297 227.93 65.2109 228.836 65.2109C230.18 65.2109 232.047 64.2031 234.438 62.1875C235.359 61.3594 236.07 60.9453 236.57 60.9453C237.242 60.9453 237.578 61.3047 237.578 62.0234C237.578 63.1484 236.492 64.6094 234.32 66.4062C232.164 68.1875 229.953 69.0781 227.688 69.0781C223.906 69.0781 222.016 66.8516 222.016 62.3984C222.016 60.7891 222.406 58.2969 223.188 54.9219C223.953 51.5625 224.336 49.5469 224.336 48.875C224.336 48.6406 224.148 48.5234 223.773 48.5234L221.336 48.7344C219.336 48.7344 218.336 47.9375 218.336 46.3438C218.336 45.4375 218.797 44.9844 219.719 44.9844H224.547C224.875 44.9844 225.164 44.8359 225.414 44.5391C225.664 44.2422 226.031 43.25 226.516 41.5625C227 39.8594 227.43 38.1797 227.805 36.5234C228.18 34.8828 228.914 34.0625 230.008 34.0625C230.68 34.0625 231.203 34.2969 231.578 34.7656C231.953 35.2344 232.141 35.6719 232.141 36.0781C232.141 36.2969 231.859 37.4141 231.297 39.4297L229.938 44.3516ZM254.898 52.7422H256.609C259.516 52.7422 261.68 52.6406 263.102 52.4375C263.789 52.3438 264.477 52.2969 265.164 52.2969C265.461 52.2969 266.062 52.4766 266.969 52.8359C267.891 53.1953 268.438 53.5 268.609 53.75C268.781 53.9844 268.867 54.3047 268.867 54.7109C268.867 55.2891 268.75 55.6953 268.516 55.9297C268.281 56.1641 267.773 56.2812 266.992 56.2812C266.648 56.2812 266.164 56.1797 265.539 55.9766C264.914 55.7734 264.391 55.6719 263.969 55.6719C263.797 55.6719 263.227 55.7109 262.258 55.7891C261.742 55.8359 260.805 55.7969 259.445 55.6719C258.398 55.5781 257.617 55.5312 257.102 55.5312C256.383 55.5312 255.297 55.5781 253.844 55.6719C252.391 55.7656 251.289 55.8125 250.539 55.8125C249.789 55.8125 249.18 55.7344 248.711 55.5781C248.258 55.4062 248.031 55.0312 248.031 54.4531C248.031 54.2031 248.133 53.9141 248.336 53.5859C248.555 53.2422 249.273 52.9766 250.492 52.7891C251.711 52.5859 252.586 52.4844 253.117 52.4844L254.898 52.7422ZM278.219 65.2812C277.453 68.0938 276.734 72.0391 276.062 77.1172L275.406 81.5469C275.297 82.1719 275.008 82.7891 274.539 83.3984C274.07 84.0234 273.641 84.3359 273.25 84.3359C272.766 84.3359 272.211 84.0859 271.586 83.5859C270.977 83.1016 270.672 82.7109 270.672 82.4141C270.672 81.5547 270.867 80.3672 271.258 78.8516C274.117 67.3047 275.547 57.1641 275.547 48.4297L275.523 46.4609C275.492 44.7734 275.789 43.5469 276.414 42.7812C277.039 42.0156 277.758 41.6328 278.57 41.6328C278.945 41.6328 279.305 41.9297 279.648 42.5234C279.992 43.1016 280.164 43.9297 280.164 45.0078C280.164 46.5234 280.008 48.3594 279.695 50.5156C279.289 53.2344 279.078 54.7969 279.062 55.2031C281.391 51.1406 283.859 47.9688 286.469 45.6875C289.078 43.4062 291.5 42.2656 293.734 42.2656C295.312 42.2656 296.641 42.8594 297.719 44.0469C298.812 45.2188 299.359 46.6797 299.359 48.4297C299.359 53.5234 297.406 58.1484 293.5 62.3047C289.594 66.4609 285.789 68.5391 282.086 68.5391C281.164 68.5391 280.43 68.3047 279.883 67.8359C279.352 67.3672 278.797 66.5156 278.219 65.2812ZM292.773 46.4141C290.57 46.4141 287.844 48.4766 284.594 52.6016C281.344 56.7266 279.719 59.9375 279.719 62.2344C279.719 62.7969 280.039 63.3438 280.68 63.875C281.32 64.4062 282.133 64.6719 283.117 64.6719C285.352 64.6719 287.922 63.0234 290.828 59.7266C293.734 56.4141 295.188 53.1641 295.188 49.9766C295.188 48.8359 294.953 47.9609 294.484 47.3516C294.031 46.7266 293.461 46.4141 292.773 46.4141ZM312.273 36.6172C311.945 36.6172 311.695 36.2656 311.523 35.5625C311.461 35.3438 311.375 35.1016 311.266 34.8359C310.844 33.8203 310.633 32.9375 310.633 32.1875C310.633 31.5625 311 30.9297 311.734 30.2891C312.484 29.6328 313.312 29.3047 314.219 29.3047C314.672 29.3047 315.18 29.4844 315.742 29.8438C316.305 30.1875 316.586 30.5234 316.586 30.8516C316.586 31.3672 316.391 32.2422 316 33.4766C315.625 34.7109 315.016 35.5469 314.172 35.9844C313.344 36.4062 312.711 36.6172 312.273 36.6172ZM309.203 62.7969C309.203 63.9844 309.367 65.3203 309.695 66.8047C309.758 67.0859 309.789 67.3203 309.789 67.5078C309.789 67.7891 309.531 68.1484 309.016 68.5859C308.5 69.0391 307.953 69.2656 307.375 69.2656C305.859 69.2656 305.102 67.875 305.102 65.0938C305.102 62.2188 305.695 57.6719 306.883 51.4531C307.289 49.2812 307.492 47.9453 307.492 47.4453C307.492 46.4609 307.672 45.625 308.031 44.9375C308.391 44.2344 308.898 43.8828 309.555 43.8828C310.352 43.8828 310.977 44.0781 311.43 44.4688C311.898 44.8438 312.133 45.2656 312.133 45.7344C312.133 46.2031 312.023 46.8203 311.805 47.5859C310.633 51.7109 309.906 54.6641 309.625 56.4453C309.344 58.2266 309.203 60.3438 309.203 62.7969ZM338.5 67.7422C338.094 67.5703 337.703 67.3828 337.328 67.1797C335.953 66.4922 334.094 66.1484 331.75 66.1484C330.391 66.1484 328.125 66.4141 324.953 66.9453C321.781 67.4609 319.617 68.2578 318.461 69.3359C317.664 70.0391 316.828 70.3906 315.953 70.3906C315.469 70.3906 314.93 70.25 314.336 69.9688C313.727 69.6875 313.406 69.3047 313.375 68.8203C314.109 68.0078 315.125 66.9453 316.422 65.6328C323.469 58.4766 328.828 52.5391 332.5 47.8203C332.438 47.6797 332.188 47.6094 331.75 47.6094C330.922 47.6094 329.156 47.8047 326.453 48.1953C325.234 48.3828 323.969 48.4766 322.656 48.4766C319.453 48.4766 317.852 47.6328 317.852 45.9453C317.852 44.6641 318.562 44.0234 319.984 44.0234C320.062 44.0234 320.211 44.0625 320.43 44.1406C321.555 44.6094 322.914 44.8438 324.508 44.8438C326.617 44.8438 329 44.6719 331.656 44.3281C331.922 44.2812 332.234 44.2344 332.594 44.1875C332.938 44.1562 333.336 44.0938 333.789 44C334.695 43.8438 335.414 43.7656 335.945 43.7656C336.477 43.7656 337.016 43.9062 337.562 44.1875C338.125 44.4688 338.367 44.9219 338.289 45.5469L338.266 45.6406C337.922 47 333.789 51.9062 325.867 60.3594C323.961 62.4062 322.938 63.6172 322.797 63.9922C322.859 64.1484 323.016 64.2266 323.266 64.2266C323.484 64.2266 324.578 64.0156 326.547 63.5938C330.234 62.7969 333.031 62.3984 334.938 62.3984C337.922 62.3984 339.414 63.3047 339.414 65.1172C339.414 66.2578 339.109 67.1328 338.5 67.7422ZM362.641 67.7422C362.234 67.5703 361.844 67.3828 361.469 67.1797C360.094 66.4922 358.234 66.1484 355.891 66.1484C354.531 66.1484 352.266 66.4141 349.094 66.9453C345.922 67.4609 343.758 68.2578 342.602 69.3359C341.805 70.0391 340.969 70.3906 340.094 70.3906C339.609 70.3906 339.07 70.25 338.477 69.9688C337.867 69.6875 337.547 69.3047 337.516 68.8203C338.25 68.0078 339.266 66.9453 340.562 65.6328C347.609 58.4766 352.969 52.5391 356.641 47.8203C356.578 47.6797 356.328 47.6094 355.891 47.6094C355.062 47.6094 353.297 47.8047 350.594 48.1953C349.375 48.3828 348.109 48.4766 346.797 48.4766C343.594 48.4766 341.992 47.6328 341.992 45.9453C341.992 44.6641 342.703 44.0234 344.125 44.0234C344.203 44.0234 344.352 44.0625 344.57 44.1406C345.695 44.6094 347.055 44.8438 348.648 44.8438C350.758 44.8438 353.141 44.6719 355.797 44.3281C356.062 44.2812 356.375 44.2344 356.734 44.1875C357.078 44.1562 357.477 44.0938 357.93 44C358.836 43.8438 359.555 43.7656 360.086 43.7656C360.617 43.7656 361.156 43.9062 361.703 44.1875C362.266 44.4688 362.508 44.9219 362.43 45.5469L362.406 45.6406C362.062 47 357.93 51.9062 350.008 60.3594C348.102 62.4062 347.078 63.6172 346.938 63.9922C347 64.1484 347.156 64.2266 347.406 64.2266C347.625 64.2266 348.719 64.0156 350.688 63.5938C354.375 62.7969 357.172 62.3984 359.078 62.3984C362.062 62.3984 363.555 63.3047 363.555 65.1172C363.555 66.2578 363.25 67.1328 362.641 67.7422ZM382.68 59.4688C380.492 62.4062 378.328 64.6094 376.188 66.0781C374.047 67.5469 372.086 68.2812 370.305 68.2812C369.102 68.2812 368.062 67.7734 367.188 66.7578C366.312 65.7422 365.875 64.4375 365.875 62.8438C365.875 58.7344 367.711 54.3125 371.383 49.5781C375.055 44.8281 378.703 42.4531 382.328 42.4531C383.641 42.4531 384.617 43.2031 385.258 44.7031C385.461 45.2031 385.781 45.4531 386.219 45.4531C387.469 45.4531 388.094 45.9375 388.094 46.9062C388.094 47.3906 388.016 48.0547 387.859 48.8984C387.016 53.5078 386.594 56.7578 386.594 58.6484C386.594 62.4297 387.312 64.6953 388.75 65.4453C389.438 65.8203 389.781 66.2812 389.781 66.8281C389.781 67.3125 389.445 67.7969 388.773 68.2812C388.102 68.7812 387.453 69.0312 386.828 69.0312C385.625 69.0312 384.633 68.2031 383.852 66.5469C383.07 64.8906 382.68 62.5312 382.68 59.4688ZM381.25 46.2734C379.188 46.2734 376.789 48.2109 374.055 52.0859C371.32 55.9453 369.953 59.1484 369.953 61.6953C369.953 63.4922 370.547 64.3906 371.734 64.3906C373.453 64.3906 375.836 62.6562 378.883 59.1875C381.93 55.7188 383.453 52.5312 383.453 49.625C383.453 47.3906 382.719 46.2734 381.25 46.2734Z" fill="black"/>
<defs>
<clipPath id="clip0">
<rect width="99" height="99" fill="white"/>
</clipPath>
</defs>
</svg>
